<?xml version="1.0" encoding="UTF-8" standalone="no"?><svg xmlns="http://www.w3.org/2000/svg" xmlns:xlink="http://www.w3.org/1999/xlink" fill="#000000" height="20" preserveAspectRatio="xMidYMid meet" version="1" viewBox="0.0 0.0 162.0 20.0" width="162" zoomAndPan="magnify"><g id="change1_1"><path d="M157.9,20H4.1C1.9,20,0,18.1,0,15.9V4.1C0,1.9,1.9,0,4.1,0h153.8c2.3,0,4.1,1.9,4.1,4.1v11.8 C162,18.1,160.1,20,157.9,20z" fill="#ffffff"/></g><g id="change2_1"><path d="M153.8,13.6l-1.9-2.9c0,0,0,0,0,0c0.5-0.4,0.8-0.9,0.9-1.5c0.1-0.7,0-1.4-0.4-1.9c-0.8-1.2-2.4-1.5-3.5-0.8 c-0.6,0.4-1,0.9-1.1,1.6c-0.1,0.7,0,1.4,0.4,1.9c0.5,0.8,1.3,1.2,2.2,1.2c0.4,0,0.8-0.1,1.2-0.3c0,0,0,0,0,0l1.9,2.9 c0.1,0.1,0.1,0.1,0.2,0.1c0.1,0,0.1,0,0.1,0C153.9,13.8,153.9,13.7,153.8,13.6z M148.6,9.7c-0.6-0.9-0.3-2.2,0.6-2.8 c0.3-0.2,0.7-0.3,1.1-0.3c0.1,0,0.3,0,0.4,0c0.5,0.1,1,0.4,1.3,0.9c0.3,0.5,0.4,1,0.3,1.5c-0.1,0.5-0.4,1-0.9,1.3 C150.5,10.9,149.2,10.6,148.6,9.7z" fill="#020202"/></g></svg>