<?xml version="1.0" encoding="UTF-8" standalone="no"?><svg xmlns="http://www.w3.org/2000/svg" xmlns:xlink="http://www.w3.org/1999/xlink" fill="#8f79d1" height="183.3" preserveAspectRatio="xMidYMid meet" version="1" viewBox="-0.0 -0.8 130.1 183.3" width="130.1" zoomAndPan="magnify"><g><g id="change1_1"><path d="m-217.18-44.411a25.001 25.001 0 1 1 -50.003 0 25.001 25.001 0 1 1 50.003 0z" fill="inherit" transform="translate(251.456 44.76) scale(.64489)"/></g><g id="change1_2"><path d="m-263.34-279.59c-0.96691 0.00843-1.9022 0.44561-2.5312 1.2812l-16.812 22.344h-27.406c-1.786 0-3.2188 1.4327-3.2188 3.2188v5.6875c0 1.786 1.4327 3.2188 3.2188 3.2188h31.438c0.98902 0 1.847-0.45947 2.4375-1.1562 0.4219-0.21595 0.81977-0.5008 1.125-0.90625l10.188-13.531v114.91c0 4.477 3.6168 8.0625 8.0938 8.0625h0.5c4.477 0 8.0938-3.5855 8.0938-8.0625v-68.594h5.3438v68.594c0 4.477 3.5855 8.0625 8.0625 8.0625h0.5c4.477 0 8.0938-3.5855 8.0938-8.0625v-78.812c0-0.27981-0.00376-0.54017-0.03125-0.8125v-35.438h3.4062v43.969c0 3.1205 2.7048 5.625 6.0625 5.625s6.0625-2.5045 6.0625-5.625v-55.188h-0.03125c0.00244-0.08399 0.03125-0.16542 0.03125-0.25 0-4.7184-3.8441-8.5312-8.5625-8.5312h-44.062z" fill="inherit" transform="translate(340.84 319)"/></g><g id="change1_3"><path d="m-346.02-146.85h11.786v11.786h-11.786z" fill="inherit" transform="rotate(9.462 -1761.694 2219.055)"/><path d="m-176.9-339.75h11.786v11.786h-11.786z" fill="inherit" transform="rotate(-28.179 807.54 -519.102)"/><path d="m-391.07-75.781h11.786v11.786h-11.786z" fill="inherit" transform="rotate(25.562 -534.492 911.166)"/><path d="m-329.81-211.34-11.031 0.125 10.156 73.938h38.906l10.156-73.938-11.031-0.125-8.5938 62.625h-19.969l-8.5938-62.625z" fill="inherit" transform="translate(340.84 319.813)"/></g></g></svg>